inDegrees=no
num_controls=7
num_derivatives=13
num_iterations=108
num_multipliers=7
num_parameters=0
num_slacks=7
num_states=26
objective=0.445618
objective_accelerations=0.059194
objective_balance=0.003489
objective_effort=0.023931
objective_height=0.352974
objective_ligament=0.006030
solver_duration=1767.768535
status=Solve_Succeeded
success=true
DataType=double
version=3
OpenSimVersion=4.5
endheader
time	/jointset/ground_pelvis/pelvis_tilt/value	/jointset/ground_pelvis/pelvis_tx/value	/jointset/ground_pelvis/pelvis_ty/value	/jointset/hip_l/hip_flexion_l/value	/jointset/hip_l/hip_adduction_l/value	/jointset/hip_l/hip_rotation_l/value	/jointset/back/lumbar_extension/value	/jointset/patellofemoral_l/patellar_flexion_l/value	/jointset/knee_l/knee_flexion_l/value	/jointset/knee_l/knee_adduction_l/value	/jointset/knee_l/knee_rotation_l/value	/jointset/ankle_l/ankle_angle_l/value	/jointset/subtalar_l/subtalar_angle_l/value	/jointset/ground_pelvis/pelvis_tilt/speed	/jointset/ground_pelvis/pelvis_tx/speed	/jointset/ground_pelvis/pelvis_ty/speed	/jointset/hip_l/hip_flexion_l/speed	/jointset/hip_l/hip_adduction_l/speed	/jointset/hip_l/hip_rotation_l/speed	/jointset/back/lumbar_extension/speed	/jointset/patellofemoral_l/patellar_flexion_l/speed	/jointset/knee_l/knee_flexion_l/speed	/jointset/knee_l/knee_adduction_l/speed	/jointset/knee_l/knee_rotation_l/speed	/jointset/ankle_l/ankle_angle_l/speed	/jointset/subtalar_l/subtalar_angle_l/speed	/forceset/tau_hip_flexion_l	/forceset/tau_hip_adduction_l	/forceset/tau_hip_rotation_l	/forceset/tau_knee_flexion_l	/forceset/tau_ankle_angle_l	/forceset/tau_subtalar_angle_l	/forceset/tau_lumbar_extension	lambda_cid13_p0	lambda_cid13_p1	lambda_cid13_p2	lambda_cid13_p3	lambda_cid13_p4	lambda_cid13_p5	lambda_cid14_p0	/jointset/ground_pelvis/pelvis_tilt/accel	/jointset/ground_pelvis/pelvis_tx/accel	/jointset/ground_pelvis/pelvis_ty/accel	/jointset/hip_l/hip_flexion_l/accel	/jointset/hip_l/hip_adduction_l/accel	/jointset/hip_l/hip_rotation_l/accel	/jointset/back/lumbar_extension/accel	/jointset/patellofemoral_l/patellar_flexion_l/accel	/jointset/knee_l/knee_flexion_l/accel	/jointset/knee_l/knee_adduction_l/accel	/jointset/knee_l/knee_rotation_l/accel	/jointset/ankle_l/ankle_angle_l/accel	/jointset/subtalar_l/subtalar_angle_l/accel	gamma_cid13_p0	gamma_cid13_p1	gamma_cid13_p2	gamma_cid13_p3	gamma_cid13_p4	gamma_cid13_p5	gamma_cid14_p0
0.5	-0.3483906602302398	-0.04030870122119672	0.7536063620712131	1.12854582559919	-0.4378704025478978	-0.2133757910275462	-0.2547976305636531	0.832709906501924	0.8327099065019404	-0.1228567940090053	-0.1583304828295543	0.1154723762381363	-0.02975338773553849	-0.7843171374378778	-0.218962625765506	-0.5583368675870756	2.553306379783099	-0.2021878414281846	0.7612351896399856	-0.1109298641338674	2.051340078010885	2.051340078011027	0.1461373610839123	-0.09115542670127011	0.4634728772272218	0.005671158950304965	-0.1741325813950291	0.02926623882763711	-0.01124786498666616	-0.2178895102320094	0.06557417934553772	0.03753349550435006	0.170554334566727	-11.68653236534443	-17.12619360774795	5.674551297752696	-5.591466050603546	-520.9682168171057	-55.24627253485653	-23.91738801933049	0.866217973950305	0.6091684042918063	-0.4906380382639433	-1.385245766104047	0.767026128050338	-0.2273540493777889	1.074961438967292	-1.324111863967399	-1.324111863967357	0.1035448027589148	0.1904717879498365	-0.6056497011075734	0.5280582034548138	-6.086731556804572e-07	-2.867534182887926e-07	3.318584154068477e-06	2.19545282798784e-07	-7.031953993203529e-07	1.505336391825554e-07	-5.012498833294919e-07
0.51	-0.3561885666297531	-0.04246761860102247	0.7479996871912982	1.154004682974915	-0.4398551516934472	-0.2057730979054833	-0.2558544995790665	0.8531539295062409	0.8531539295062555	-0.121395081046092	-0.1592317902940068	0.1200755441898891	-0.02967233730968438	-0.7751476439919909	-0.2128039994097508	-0.5628780691302728	2.538117581876833	-0.1947463193279126	0.7591942396995456	-0.1004950639554968	2.037190806645708	2.037190806645529	0.1462041239340196	-0.08910386031873374	0.4570801074798544	0.01052411731763394	-0.1796968769272005	0.02989064731863946	-0.01130202053226451	-0.2207823181328047	0.06513671866317704	0.03780366902013912	0.1747903357129774	-12.03573967064018	-17.14465838346267	5.634399641824277	-5.484479745434861	-524.7309426458294	-54.84071131908332	-22.96555323028867	0.9597096243681323	0.6217835049152042	-0.4179934597696837	-1.63791784153747	0.7346601811754383	-0.2092845559523112	1.020070556287401	-1.501292405893994	-1.50129240594218	-0.04184588069852901	0.2134995405008747	-0.6681621257942596	0.4613406578416005	-5.957453197918767e-07	-1.759099031112977e-07	3.388912553205491e-06	2.502228136778441e-07	-6.850996621259253e-07	2.452728617240756e-07	-4.954117366070975e-07
0.52	-0.3638912991759166	-0.04456443496655108	0.7423511738464668	1.179301208163847	-0.441765096631962	-0.1981941781007401	-0.2568085543428933	0.8734482682702867	0.8734482682702949	-0.1199327180360451	-0.160112381999214	0.1246123701413196	-0.02954327209926303	-0.7652823667676911	-0.2065424229060774	-0.5667045605703603	2.520839942424584	-0.1872270000212475	0.7564805261760967	-0.09036701381650721	2.021403229956485	2.021403229955985	0.1462673705107206	-0.08701227485238304	0.4502044771627691	0.01527411586374982	-0.1852611724593713	0.03051505580964172	-0.01135617607787025	-0.223675126033601	0.06469925798081543	0.03807384253592777	0.1790263368592287	-12.3888115983159	-17.16312710012125	5.59502822266125	-5.409696240036757	-528.5784535027494	-54.50040860571664	-22.01601634702199	1.005374729632917	0.6297584338754461	-0.3476960176420157	-1.803014075300603	0.7825855693289436	-0.3619067659796152	1.013611431091097	-1.651772928776581	-1.651772928776557	0.1028415480776242	0.1984756047126981	-0.7022218150511834	0.5074662392121889	-5.833884942777342e-07	-5.001055932219481e-08	3.475161363190326e-06	2.897151378807492e-07	-6.73812287677329e-07	3.42797826371228e-07	-4.881828040661011e-07
0.53	-0.37149212729888	-0.04659815173562388	0.7366680090577807	1.204414791927905	-0.4435994555215357	-0.1906451936422923	-0.2576627984049837	0.8935766790039162	0.893576679003906	-0.118470016645818	-0.1609715216348095	0.1290781775672855	-0.02936715083143102	-0.7547758510728282	-0.2001859202828191	-0.5698035884410181	2.501534529170987	-0.1796368058265083	0.7532129990538815	-0.08053946772548033	2.004017304198344	2.00401730419818	0.1462648541743133	-0.0848113701197528	0.4428907006024165	0.0199340482085315	-0.1906538702583873	0.0307278005183179	-0.01134500094083381	-0.2268612014868192	0.06459124500616766	0.03827499668804134	0.1831133238009641	-12.64104504054034	-17.16772975010115	5.551676828359221	-5.373011239693495	-532.4570099966878	-54.1828530398447	-21.07313771104371	1.089318393142022	0.6409098621128886	-0.2724184396145076	-2.045743869877516	0.7479734719045	-0.325103628925623	0.9586758295336839	-1.821147407884198	-1.821147407833716	-0.05289628856249029	0.2322438733014813	-0.7558662055386621	0.4424289272100008	-5.639211153109361e-07	5.24850236686272e-08	3.503543137548333e-06	3.183551573199741e-07	-6.537866917214136e-07	4.334160849082003e-07	-4.769051319043407e-07
